<svg height="400" viewBox="0 0 400 400" width="400" xmlns="http://www.w3.org/2000/svg">
  <g fill="none" fill-rule="evenodd">
    <path transform="matrix(1.3,0,0,1.3,-48,-54.2)" d="M -22.9 -20.9 h 400 v 400 h -400 z" fill="none" />
    <path transform="matrix(1.3,0,0,1.3,-48,-54.2)"
      d="M 157.5 148.8 v -14.4 c 0 -2.6 0.1 -3.5 0.5 -4.8 c 1.1 -3.7 4.7 -6.4 9 -6.4 s 8 2.8 9 6.4 c 0.4 1.3 0.5 2.2 0.5 4.8 v 22.2 c 0 1.3 0 2.7 -0.3 3.9 c -0.7 3.4 -3.8 6.4 -7.1 7.1 c -1.2 0.3 -2.6 0.3 -3.9 0.3 h -22.2 c -2.6 0 -3.5 -0.1 -4.9 -0.5 c -3.6 -1.1 -6.5 -4.7 -6.5 -9 c 0 -4.3 2.8 -7.9 6.5 -9 c 1.3 -0.4 2.2 -0.5 4.9 -0.5 z m 79.3 100.5 h -119.3 v -104.8 c 0 -1.3 0.5 -2.5 1.4 -3.4 l 30.9 -30.8 c 0.9 -0.9 2.1 -1.4 3.4 -1.4 h 83.5 z m 13.5 -164.1 c -0.6 -0.1 -1.4 -0.1 -3 -0.1 h -97.2 c -1.1 0 -2.2 0.1 -2.9 0.1 c -4.4 0.4 -8.4 2.5 -11.6 5.6 l -36.2 36.1 c -3.2 3.2 -5.3 7.1 -5.7 11.6 c -0.1 0.7 -0.1 1.8 -0.1 2.9 v 118.5 c 0 1.5 0.1 2.4 0.1 3 c 0.5 5 5.1 9.6 10.2 10.1 c 0.6 0.1 1.4 0.1 3 0.1 h 140.4 c 1.5 0 2.4 -0.1 3 -0.1 c 5.1 -0.5 9.6 -5.1 10.2 -10.1 c 0.1 -0.6 0.1 -1.4 0.1 -3 v -161.5 c 0 -1.5 -0.1 -2.4 -0.1 -3 c -0.5 -5 -5.1 -9.6 -10.2 -10.1 z"
      fill="#41c9b4" />
  </g>
</svg>